<svg width="1182" height="1068" viewBox="0 0 1182 1068" fill="none" xmlns="http://www.w3.org/2000/svg">
<path d="M1090.07 431.084C1017.56 344.628 932.566 368.31 932.566 368.31C943.197 365.497 956.416 369.378 973.797 381.641C1032.13 422.872 1104.47 642.752 905.06 744.283C818.773 788.214 718.255 775.839 642.261 696.302L240.638 796.314C345.432 982.331 619.143 1134.49 889.591 1037.57C1039.95 983.681 1125.17 863.645 1161.33 735.114C1163.02 723.751 1187.66 547.465 1090.07 431.084Z" fill="white"/>
<path opacity="0.6" d="M825.466 919.106C1150.42 881.025 1165.33 557.027 1076.23 445.203C1047.06 408.019 1007.52 380.32 962.603 365.609C952.507 365.288 942.411 366.271 932.566 368.534C943.197 365.722 956.416 369.603 973.797 381.865C1032.13 423.096 1104.47 642.977 905.06 744.507C818.773 788.438 718.255 776.063 642.261 696.526L474.806 737.982C506.981 806.888 600.411 945.488 825.466 919.106Z" fill="white"/>
<path d="M471.262 337.991C378.112 406.222 316.35 502.409 354.544 582.565C387.619 651.696 454.499 636.733 454.499 636.733C133.876 874.051 53.4389 756.826 11.3641 625.483C-30.7107 494.14 36.1139 188.142 346.219 41.1049C483.918 -24.0886 667.405 -17.6761 687.655 103.542C708.186 226.616 533.249 292.485 471.262 337.991Z" fill="white"/>
<path opacity="0.6" d="M558.898 136.617C496.461 81.3796 183.544 211.373 162.675 477.603C150.694 630.546 221.231 704.739 286.425 740.514C333.618 718.745 389.024 685.277 454.555 636.733C454.555 636.733 387.674 651.695 354.599 582.565C316.237 502.409 377.999 406.222 471.149 337.991C487.18 326.291 510.524 313.185 536.511 298.054C536.623 298.11 635.229 204.173 558.898 136.617Z" fill="white"/>
<path d="M845.884 167.723C720.729 201.473 738.166 474.846 470.136 628.127C266.006 744.901 53.6071 756.826 11.4199 625.483C156.769 1080.43 574.592 898.182 702.223 791.251C897.353 627.733 870.016 379.784 934.365 367.859C947.246 364.991 1023.8 352.166 1089.95 431.084C1187.55 547.465 1163.08 723.583 1161.22 735.114C1188 639.827 1187.83 539.871 1166.85 458.647C1119.54 274.147 971.04 133.861 845.884 167.723Z" fill="white"/>
<path opacity="0.33" d="M1011.15 276.735C1112.96 310.204 1152.33 411.734 1158.58 429.509C1103.79 259.691 964.403 135.661 845.885 167.723C720.729 201.473 738.166 474.847 470.136 628.127C266.006 744.901 53.6072 756.826 11.4199 625.483C25.5793 671.394 45.4004 715.364 70.4258 756.376C151.819 811.557 280.012 852.845 463.555 790.576C881.266 648.883 723.991 182.236 1011.15 276.735Z" fill="white"/>
</svg>
