<svg width="269" height="44" viewBox="0 0 269 44" fill="none" xmlns="http://www.w3.org/2000/svg">
<path d="M43.8144 17.97C40.9001 14.495 37.4838 15.4468 37.4838 15.4468C37.9111 15.3338 38.4424 15.4898 39.1411 15.9827C41.4856 17.6399 44.3932 26.4779 36.3782 30.5588C32.91 32.3246 28.8697 31.8272 25.8152 28.6302L9.67228 32.6502C13.8844 40.127 24.886 46.2428 35.7565 42.3472C41.7999 40.1813 45.2252 35.3565 46.679 30.1903C46.7468 29.7336 47.7371 22.6479 43.8144 17.97Z" fill="url(#paint0_linear_8_86)"/>
<path opacity="0.6" d="M33.179 37.5857C46.2404 36.0551 46.8395 23.0322 43.2582 18.5375C42.0857 17.0429 40.4964 15.9296 38.6912 15.3383C38.2853 15.3254 37.8795 15.3649 37.4838 15.4559C37.9111 15.3428 38.4424 15.4988 39.1411 15.9917C41.4856 17.649 44.3932 26.4869 36.3782 30.5678C32.91 32.3336 28.8697 31.8362 25.8152 28.6393L19.0845 30.3056C20.3777 33.0752 24.1331 38.6461 33.179 37.5857Z" fill="url(#paint1_linear_8_86)"/>
<path d="M18.942 14.2282C15.198 16.9707 12.7155 20.8368 14.2506 24.0587C15.58 26.8373 18.2683 26.2359 18.2683 26.2359C5.38105 35.7747 2.14794 31.063 0.456771 25.7837C-1.2344 20.5045 1.45157 8.2051 13.916 2.29506C19.4507 -0.325339 26.8258 -0.0675943 27.6398 4.80468C28.465 9.75157 21.4336 12.3991 18.942 14.2282Z" fill="url(#paint2_linear_8_86)"/>
<path opacity="0.6" d="M22.4645 6.13412C19.9549 3.9139 7.37742 9.13888 6.53862 19.8398C6.05704 25.9872 8.89223 28.9694 11.5126 30.4073C13.4095 29.5324 15.6365 28.1871 18.2705 26.2359C18.2705 26.2359 15.5823 26.8373 14.2529 24.0587C12.7109 20.8369 15.1934 16.9707 18.9375 14.2282C19.5818 13.7579 20.5201 13.2311 21.5647 12.623C21.5692 12.6252 25.5326 8.84949 22.4645 6.13412Z" fill="url(#paint3_linear_8_86)"/>
<path d="M33.9997 7.38442C28.9692 8.74097 29.6701 19.729 18.8968 25.89C10.6919 30.5837 2.1547 31.063 0.459015 25.7838C6.30122 44.0701 23.0953 36.7447 28.2253 32.4467C36.0685 25.8742 34.9697 15.9081 37.5561 15.4288C38.0739 15.3135 41.151 14.798 43.8098 17.97C47.7325 22.6479 46.749 29.7268 46.6744 30.1903C47.7506 26.3603 47.7438 22.3426 46.9005 19.0779C44.9991 11.6621 39.0303 6.02335 33.9997 7.38442Z" fill="url(#paint4_linear_8_86)"/>
<path opacity="0.33" d="M40.6423 11.766C44.7345 13.1113 46.3172 17.1922 46.5682 17.9067C44.366 11.081 38.7635 6.09565 33.9997 7.38437C28.9692 8.74092 29.6701 19.729 18.8968 25.89C10.6919 30.5836 2.1547 31.063 0.459015 25.7837C1.02814 27.6291 1.82484 29.3964 2.83072 31.0449C6.10226 33.2628 11.2549 34.9223 18.6323 32.4195C35.4218 26.7243 29.1003 7.96769 40.6423 11.766Z" fill="url(#paint5_linear_8_86)"/>
<path d="M70.7582 31.0374C67.4676 31.0374 64.9558 30.1222 63.2229 28.2919C61.5094 26.4616 60.6527 23.8622 60.6527 20.4937C60.6527 18.8192 60.9156 17.3297 61.4413 16.0251C61.967 14.701 62.6874 13.5912 63.6026 12.6955C64.5177 11.7804 65.6081 11.0891 66.8737 10.6218C68.1394 10.1545 69.5121 9.92087 70.9919 9.92087C71.8486 9.92087 72.6275 9.98902 73.3284 10.1253C74.0294 10.2421 74.6427 10.3882 75.1685 10.5634C75.6942 10.7192 76.1323 10.8847 76.4828 11.0599C76.8332 11.2352 77.0864 11.3715 77.2421 11.4688L75.9278 15.1489C75.3048 14.8179 74.5746 14.5355 73.7373 14.3019C72.9195 14.0682 71.9849 13.9514 70.9335 13.9514C70.2325 13.9514 69.5413 14.0682 68.8598 14.3019C68.1978 14.5355 67.6039 14.9152 67.0782 15.4409C66.5719 15.9472 66.163 16.6092 65.8515 17.427C65.54 18.2448 65.3842 19.2378 65.3842 20.4061C65.3842 21.3407 65.4816 22.2169 65.6763 23.0347C65.8904 23.833 66.2215 24.5243 66.6693 25.1084C67.1366 25.6925 67.7402 26.1598 68.4801 26.5103C69.22 26.8413 70.1157 27.0068 71.1671 27.0068C71.8292 27.0068 72.423 26.9679 72.9487 26.89C73.4745 26.8121 73.9418 26.7245 74.3507 26.6271C74.7596 26.5103 75.1198 26.3837 75.4313 26.2474C75.7429 26.1112 76.0252 25.9846 76.2783 25.8678L77.5342 29.5186C76.8917 29.908 75.9863 30.2585 74.818 30.57C73.6497 30.8816 72.2965 31.0374 70.7582 31.0374Z" fill="white"/>
<path d="M80.1756 30.6285V8.66498L84.5274 7.96402V15.3241C84.8195 15.2268 85.1894 15.1391 85.6373 15.0613C86.1046 14.9639 86.5524 14.9152 86.9808 14.9152C88.2269 14.9152 89.2589 15.0905 90.0767 15.4409C90.9139 15.772 91.576 16.249 92.0627 16.8721C92.569 17.4952 92.9195 18.2351 93.1142 19.0918C93.3284 19.9485 93.4355 20.9026 93.4355 21.9541V30.6285H89.0837V22.4798C89.0837 21.0779 88.8987 20.0848 88.5287 19.5007C88.1782 18.9166 87.5162 18.6245 86.5427 18.6245C86.1532 18.6245 85.7833 18.6634 85.4328 18.7413C85.1018 18.7997 84.8 18.8679 84.5274 18.9458V30.6285H80.1756Z" fill="white"/>
<path d="M106.633 19.121C106.244 19.0236 105.786 18.9263 105.26 18.8289C104.735 18.7121 104.17 18.6537 103.566 18.6537C103.294 18.6537 102.963 18.6829 102.573 18.7413C102.203 18.7803 101.921 18.8289 101.726 18.8873V30.6285H97.3745V16.0835C98.1533 15.8109 99.0685 15.5578 100.12 15.3241C101.191 15.071 102.379 14.9444 103.683 14.9444C103.917 14.9444 104.199 14.9639 104.53 15.0028C104.861 15.0223 105.192 15.0613 105.523 15.1197C105.854 15.1586 106.185 15.217 106.516 15.2949C106.847 15.3533 107.13 15.4312 107.363 15.5286L106.633 19.121Z" fill="white"/>
<path d="M123.781 22.9179C123.781 24.1251 123.605 25.2349 123.255 26.2474C122.904 27.2405 122.398 28.0972 121.736 28.8176C121.074 29.5186 120.276 30.0638 119.341 30.4532C118.426 30.8426 117.394 31.0374 116.245 31.0374C115.116 31.0374 114.084 30.8426 113.149 30.4532C112.234 30.0638 111.446 29.5186 110.784 28.8176C110.122 28.0972 109.606 27.2405 109.236 26.2474C108.866 25.2349 108.681 24.1251 108.681 22.9179C108.681 21.7107 108.866 20.6105 109.236 19.6175C109.625 18.6245 110.151 17.7775 110.813 17.0765C111.494 16.3756 112.293 15.8304 113.208 15.4409C114.142 15.0515 115.155 14.8568 116.245 14.8568C117.355 14.8568 118.368 15.0515 119.283 15.4409C120.217 15.8304 121.016 16.3756 121.678 17.0765C122.34 17.7775 122.856 18.6245 123.226 19.6175C123.596 20.6105 123.781 21.7107 123.781 22.9179ZM119.341 22.9179C119.341 21.5744 119.069 20.5229 118.523 19.7635C117.998 18.9847 117.238 18.5953 116.245 18.5953C115.252 18.5953 114.483 18.9847 113.938 19.7635C113.393 20.5229 113.12 21.5744 113.12 22.9179C113.12 24.2614 113.393 25.3323 113.938 26.1306C114.483 26.9095 115.252 27.2989 116.245 27.2989C117.238 27.2989 117.998 26.9095 118.523 26.1306C119.069 25.3323 119.341 24.2614 119.341 22.9179Z" fill="white"/>
<path d="M135.592 22.4798C135.592 21.0779 135.407 20.0848 135.038 19.5007C134.687 18.9166 134.074 18.6245 133.197 18.6245C132.925 18.6245 132.643 18.644 132.351 18.6829C132.058 18.7024 131.776 18.7316 131.504 18.7705V30.6285H127.152V15.7914C127.522 15.6941 127.95 15.5967 128.437 15.4994C128.943 15.3825 129.469 15.2852 130.014 15.2073C130.579 15.1099 131.153 15.0418 131.737 15.0028C132.321 14.9444 132.896 14.9152 133.46 14.9152C134.57 14.9152 135.466 15.0613 136.147 15.3533C136.848 15.6259 137.423 15.9569 137.871 16.3464C138.494 15.8985 139.204 15.548 140.003 15.2949C140.82 15.0418 141.57 14.9152 142.252 14.9152C143.478 14.9152 144.481 15.0905 145.26 15.4409C146.058 15.772 146.691 16.249 147.158 16.8721C147.626 17.4952 147.947 18.2351 148.122 19.0918C148.297 19.9485 148.385 20.9026 148.385 21.9541V30.6285H144.033V22.4798C144.033 21.0779 143.848 20.0848 143.478 19.5007C143.128 18.9166 142.514 18.6245 141.638 18.6245C141.405 18.6245 141.074 18.6829 140.645 18.7997C140.236 18.9166 139.896 19.0626 139.623 19.2378C139.759 19.6857 139.847 20.1627 139.886 20.669C139.925 21.1557 139.944 21.6815 139.944 22.2461V30.6285H135.592V22.4798Z" fill="white"/>
<path d="M158.207 27.591C158.636 27.591 159.045 27.5812 159.434 27.5618C159.823 27.5423 160.135 27.5131 160.369 27.4741V24.1738C160.193 24.1348 159.931 24.0959 159.58 24.0569C159.23 24.018 158.908 23.9985 158.616 23.9985C158.207 23.9985 157.818 24.0277 157.448 24.0861C157.098 24.1251 156.786 24.2127 156.513 24.349C156.241 24.4853 156.027 24.6703 155.871 24.9039C155.715 25.1376 155.637 25.4297 155.637 25.7801C155.637 26.4616 155.861 26.9387 156.309 27.2113C156.776 27.4644 157.409 27.591 158.207 27.591ZM157.857 14.8568C159.142 14.8568 160.213 15.0028 161.07 15.2949C161.926 15.587 162.608 16.0056 163.114 16.5508C163.64 17.096 164.01 17.758 164.224 18.5369C164.438 19.3157 164.545 20.1822 164.545 21.1363V30.1904C163.922 30.3267 163.056 30.4824 161.946 30.6577C160.836 30.8524 159.492 30.9497 157.915 30.9497C156.922 30.9497 156.017 30.8621 155.199 30.6869C154.401 30.5116 153.71 30.2293 153.125 29.8399C152.541 29.431 152.093 28.9053 151.782 28.2627C151.47 27.6202 151.315 26.8316 151.315 25.897C151.315 25.0013 151.49 24.2419 151.84 23.6188C152.21 22.9958 152.697 22.4992 153.301 22.1293C153.904 21.7593 154.595 21.4965 155.374 21.3407C156.153 21.1655 156.961 21.0779 157.798 21.0779C158.363 21.0779 158.86 21.1071 159.288 21.1655C159.736 21.2044 160.096 21.2628 160.369 21.3407V20.9318C160.369 20.1919 160.145 19.598 159.697 19.1502C159.249 18.7024 158.47 18.4785 157.36 18.4785C156.62 18.4785 155.89 18.5369 155.17 18.6537C154.449 18.751 153.826 18.8971 153.301 19.0918L152.746 15.587C152.999 15.5091 153.31 15.4312 153.68 15.3533C154.07 15.256 154.488 15.1781 154.936 15.1197C155.384 15.0418 155.851 14.9834 156.338 14.9444C156.844 14.886 157.351 14.8568 157.857 14.8568Z" fill="white"/>
<path d="M178.002 31.0374C174.711 31.0374 172.199 30.1222 170.466 28.2919C168.753 26.4616 167.896 23.8622 167.896 20.4937C167.896 18.8192 168.159 17.3297 168.685 16.0251C169.211 14.701 169.931 13.5912 170.846 12.6955C171.761 11.7804 172.852 11.0891 174.117 10.6218C175.383 10.1545 176.756 9.92087 178.235 9.92087C179.092 9.92087 179.871 9.98902 180.572 10.1253C181.273 10.2421 181.886 10.3882 182.412 10.5634C182.938 10.7192 183.376 10.8847 183.726 11.0599C184.077 11.2352 184.33 11.3715 184.486 11.4688L183.171 15.1489C182.548 14.8179 181.818 14.5355 180.981 14.3019C180.163 14.0682 179.228 13.9514 178.177 13.9514C177.476 13.9514 176.785 14.0682 176.103 14.3019C175.441 14.5355 174.847 14.9152 174.322 15.4409C173.815 15.9472 173.407 16.6092 173.095 17.427C172.784 18.2448 172.628 19.2378 172.628 20.4061C172.628 21.3407 172.725 22.2169 172.92 23.0347C173.134 23.833 173.465 24.5243 173.913 25.1084C174.38 25.6925 174.984 26.1598 175.724 26.5103C176.464 26.8413 177.359 27.0068 178.411 27.0068C179.073 27.0068 179.667 26.9679 180.192 26.89C180.718 26.8121 181.185 26.7245 181.594 26.6271C182.003 26.5103 182.363 26.3837 182.675 26.2474C182.986 26.1112 183.269 25.9846 183.522 25.8678L184.778 29.5186C184.135 29.908 183.23 30.2585 182.062 30.57C180.893 30.8816 179.54 31.0374 178.002 31.0374Z" fill="white"/>
<path d="M187.419 30.6285V8.66498L191.771 7.96402V15.3241C192.063 15.2268 192.433 15.1391 192.881 15.0613C193.348 14.9639 193.796 14.9152 194.224 14.9152C195.47 14.9152 196.502 15.0905 197.32 15.4409C198.158 15.772 198.82 16.249 199.306 16.8721C199.813 17.4952 200.163 18.2351 200.358 19.0918C200.572 19.9485 200.679 20.9026 200.679 21.9541V30.6285H196.327V22.4798C196.327 21.0779 196.142 20.0848 195.772 19.5007C195.422 18.9166 194.76 18.6245 193.786 18.6245C193.397 18.6245 193.027 18.6634 192.676 18.7413C192.345 18.7997 192.044 18.8679 191.771 18.9458V30.6285H187.419Z" fill="white"/>
<path d="M210.489 27.591C210.917 27.591 211.326 27.5812 211.715 27.5618C212.105 27.5423 212.416 27.5131 212.65 27.4741V24.1738C212.475 24.1348 212.212 24.0959 211.861 24.0569C211.511 24.018 211.19 23.9985 210.898 23.9985C210.489 23.9985 210.099 24.0277 209.729 24.0861C209.379 24.1251 209.067 24.2127 208.795 24.349C208.522 24.4853 208.308 24.6703 208.152 24.9039C207.996 25.1376 207.918 25.4297 207.918 25.7801C207.918 26.4616 208.142 26.9387 208.59 27.2113C209.057 27.4644 209.69 27.591 210.489 27.591ZM210.138 14.8568C211.423 14.8568 212.494 15.0028 213.351 15.2949C214.208 15.587 214.889 16.0056 215.395 16.5508C215.921 17.096 216.291 17.758 216.505 18.5369C216.719 19.3157 216.826 20.1822 216.826 21.1363V30.1904C216.203 30.3267 215.337 30.4824 214.227 30.6577C213.117 30.8524 211.774 30.9497 210.197 30.9497C209.204 30.9497 208.298 30.8621 207.48 30.6869C206.682 30.5116 205.991 30.2293 205.407 29.8399C204.823 29.431 204.375 28.9053 204.063 28.2627C203.752 27.6202 203.596 26.8316 203.596 25.897C203.596 25.0013 203.771 24.2419 204.122 23.6188C204.491 22.9958 204.978 22.4992 205.582 22.1293C206.185 21.7593 206.877 21.4965 207.656 21.3407C208.434 21.1655 209.242 21.0779 210.08 21.0779C210.644 21.0779 211.141 21.1071 211.569 21.1655C212.017 21.2044 212.377 21.2628 212.65 21.3407V20.9318C212.65 20.1919 212.426 19.598 211.978 19.1502C211.53 18.7024 210.751 18.4785 209.642 18.4785C208.902 18.4785 208.172 18.5369 207.451 18.6537C206.731 18.751 206.108 18.8971 205.582 19.0918L205.027 15.587C205.28 15.5091 205.592 15.4312 205.962 15.3533C206.351 15.256 206.77 15.1781 207.217 15.1197C207.665 15.0418 208.133 14.9834 208.619 14.9444C209.126 14.886 209.632 14.8568 210.138 14.8568Z" fill="white"/>
<path d="M220.762 15.7914C221.502 15.5772 222.456 15.3825 223.624 15.2073C224.792 15.0126 226.019 14.9152 227.304 14.9152C228.609 14.9152 229.689 15.0905 230.546 15.4409C231.422 15.772 232.113 16.249 232.62 16.8721C233.126 17.4952 233.486 18.2351 233.7 19.0918C233.914 19.9485 234.022 20.9026 234.022 21.9541V30.6285H229.67V22.4798C229.67 21.0779 229.485 20.0848 229.115 19.5007C228.745 18.9166 228.054 18.6245 227.041 18.6245C226.73 18.6245 226.399 18.644 226.048 18.6829C225.698 18.7024 225.386 18.7316 225.113 18.7705V30.6285H220.762V15.7914Z" fill="white"/>
<path d="M241.67 22.4506C241.67 24.8845 242.653 26.1014 244.62 26.1014C245.068 26.1014 245.486 26.043 245.876 25.9262C246.265 25.8093 246.596 25.673 246.869 25.5173V18.5661C246.654 18.5271 246.401 18.4979 246.109 18.4785C245.817 18.4395 245.476 18.42 245.087 18.42C243.938 18.42 243.081 18.7997 242.517 19.5591C241.952 20.3185 241.67 21.2823 241.67 22.4506ZM251.22 28.7008C251.22 31.2126 250.578 33.0721 249.293 34.2793C248.027 35.506 246.061 36.1193 243.393 36.1193C242.458 36.1193 241.524 36.0317 240.589 35.8565C239.655 35.7007 238.788 35.4865 237.99 35.2139L238.749 31.5631C239.431 31.8357 240.141 32.0499 240.881 32.2056C241.641 32.3614 242.497 32.4393 243.451 32.4393C244.698 32.4393 245.574 32.1667 246.08 31.6215C246.606 31.0763 246.869 30.3753 246.869 29.5186V28.9637C246.401 29.1779 245.915 29.3434 245.408 29.4602C244.921 29.5575 244.386 29.6062 243.802 29.6062C241.68 29.6062 240.054 28.9831 238.924 27.737C237.795 26.4714 237.23 24.7092 237.23 22.4506C237.23 21.3212 237.406 20.299 237.756 19.3839C238.107 18.4492 238.613 17.6509 239.275 16.9889C239.956 16.3269 240.784 15.8206 241.757 15.4702C242.731 15.1002 243.831 14.9152 245.058 14.9152C245.584 14.9152 246.119 14.9444 246.664 15.0028C247.229 15.0418 247.784 15.1002 248.329 15.1781C248.874 15.256 249.39 15.3533 249.877 15.4702C250.383 15.5675 250.831 15.6746 251.22 15.7914V28.7008Z" fill="white"/>
<path d="M254.572 23.0639C254.572 21.7009 254.776 20.5132 255.185 19.5007C255.614 18.4687 256.169 17.612 256.85 16.9305C257.532 16.249 258.31 15.733 259.187 15.3825C260.082 15.0321 260.997 14.8568 261.932 14.8568C264.113 14.8568 265.836 15.5286 267.102 16.8721C268.367 18.1961 269 20.153 269 22.7426C269 22.9958 268.99 23.2781 268.971 23.5896C268.951 23.8817 268.932 24.1446 268.912 24.3782H259.041C259.138 25.2739 259.557 25.9846 260.296 26.5103C261.036 27.036 262.029 27.2989 263.275 27.2989C264.074 27.2989 264.853 27.2307 265.612 27.0944C266.391 26.9387 267.024 26.7537 267.51 26.5395L268.095 30.0735C267.861 30.1904 267.549 30.3072 267.16 30.424C266.771 30.5408 266.332 30.6382 265.846 30.7161C265.378 30.8134 264.872 30.8913 264.327 30.9497C263.782 31.0082 263.237 31.0374 262.691 31.0374C261.309 31.0374 260.102 30.8329 259.07 30.424C258.057 30.0151 257.21 29.4602 256.529 28.7592C255.867 28.0388 255.37 27.1918 255.039 26.2182C254.728 25.2447 254.572 24.1932 254.572 23.0639ZM264.794 21.3991C264.775 21.0292 264.707 20.669 264.59 20.3185C264.492 19.968 264.327 19.6565 264.093 19.3839C263.879 19.1113 263.597 18.8873 263.246 18.7121C262.915 18.5369 262.497 18.4492 261.99 18.4492C261.504 18.4492 261.085 18.5369 260.735 18.7121C260.384 18.8679 260.092 19.0821 259.858 19.3547C259.625 19.6273 259.44 19.9485 259.303 20.3185C259.187 20.669 259.099 21.0292 259.041 21.3991H264.794Z" fill="white"/>
<defs>
<linearGradient id="paint0_linear_8_86" x1="48.5141" y1="20.6454" x2="22.4506" y2="37.9748" gradientUnits="userSpaceOnUse">
<stop offset="0.01" stop-color="#E05220"/>
<stop offset="0.2" stop-color="#E46321"/>
<stop offset="0.56" stop-color="#F08E24"/>
<stop offset="0.97" stop-color="#FFC627"/>
</linearGradient>
<linearGradient id="paint1_linear_8_86" x1="38.9082" y1="11.5852" x2="27.6172" y2="40.3486" gradientUnits="userSpaceOnUse">
<stop stop-color="white"/>
<stop offset="0.12" stop-color="white" stop-opacity="0.86"/>
<stop offset="0.52" stop-color="white" stop-opacity="0.4"/>
<stop offset="0.8" stop-color="white" stop-opacity="0.11"/>
<stop offset="0.93" stop-color="white" stop-opacity="0"/>
</linearGradient>
<linearGradient id="paint2_linear_8_86" x1="3.01635" y1="32.4334" x2="23.8591" y2="-3.84698" gradientUnits="userSpaceOnUse">
<stop offset="0.06" stop-color="#024CB7"/>
<stop offset="0.17" stop-color="#1977C8"/>
<stop offset="0.29" stop-color="#2E9ED7"/>
<stop offset="0.42" stop-color="#3FBDE3"/>
<stop offset="0.55" stop-color="#4CD6ED"/>
<stop offset="0.68" stop-color="#56E7F4"/>
<stop offset="0.83" stop-color="#5BF2F8"/>
<stop offset="1" stop-color="#5DF5F9"/>
</linearGradient>
<linearGradient id="paint3_linear_8_86" x1="19.3987" y1="0.0251264" x2="10.8434" y2="27.5043" gradientUnits="userSpaceOnUse">
<stop stop-color="white"/>
<stop offset="0.12" stop-color="white" stop-opacity="0.86"/>
<stop offset="0.56" stop-color="white" stop-opacity="0.4"/>
<stop offset="0.86" stop-color="white" stop-opacity="0.11"/>
<stop offset="1" stop-color="white" stop-opacity="0"/>
</linearGradient>
<linearGradient id="paint4_linear_8_86" x1="51.8926" y1="18.316" x2="-0.0994323" y2="26.2947" gradientUnits="userSpaceOnUse">
<stop stop-color="#6A037F"/>
<stop offset="0.19" stop-color="#8D138E"/>
<stop offset="0.43" stop-color="#B2239D"/>
<stop offset="0.65" stop-color="#CC2FA9"/>
<stop offset="0.85" stop-color="#DC36B0"/>
<stop offset="1" stop-color="#E239B2"/>
</linearGradient>
<linearGradient id="paint5_linear_8_86" x1="41.1216" y1="3.22429" x2="15.5099" y2="30.3146" gradientUnits="userSpaceOnUse">
<stop stop-color="white"/>
<stop offset="0.45" stop-color="white" stop-opacity="0.53"/>
<stop offset="0.83" stop-color="white" stop-opacity="0.15"/>
<stop offset="1" stop-color="white" stop-opacity="0"/>
</linearGradient>
</defs>
</svg>
